<mxfile host="app.diagrams.net" agent="Mozilla/5.0 (Windows NT 10.0; Win64; x64) AppleWebKit/537.36 (KHTML, like Gecko) Chrome/138.0.0.0 Safari/537.36" version="28.0.9">
  <diagram name="Page-1" id="QEnkhATphZnw_6QbajmP">
    <mxGraphModel dx="2696" dy="562" grid="1" gridSize="10" guides="1" tooltips="1" connect="1" arrows="1" fold="1" page="1" pageScale="1" pageWidth="827" pageHeight="1169" math="0" shadow="0">
      <root>
        <mxCell id="0" />
        <mxCell id="1" parent="0" />
        <mxCell id="Nu1XIbVVdbyaspOfS0JF-1" value="Wake up in the morning" style="ellipse;whiteSpace=wrap;html=1;" parent="1" vertex="1">
          <mxGeometry x="320" y="50" width="120" height="80" as="geometry" />
        </mxCell>
        <mxCell id="Nu1XIbVVdbyaspOfS0JF-2" value="" style="endArrow=classic;html=1;rounded=0;" parent="1" edge="1">
          <mxGeometry width="50" height="50" relative="1" as="geometry">
            <mxPoint x="380" y="140" as="sourcePoint" />
            <mxPoint x="380" y="220" as="targetPoint" />
          </mxGeometry>
        </mxCell>
        <mxCell id="Nu1XIbVVdbyaspOfS0JF-3" value="Go to the washroom" style="shape=parallelogram;perimeter=parallelogramPerimeter;whiteSpace=wrap;html=1;fixedSize=1;" parent="1" vertex="1">
          <mxGeometry x="305" y="220" width="150" height="70" as="geometry" />
        </mxCell>
        <mxCell id="Nu1XIbVVdbyaspOfS0JF-4" value="" style="endArrow=classic;html=1;rounded=0;" parent="1" edge="1">
          <mxGeometry width="50" height="50" relative="1" as="geometry">
            <mxPoint x="379.5" y="300" as="sourcePoint" />
            <mxPoint x="380" y="380" as="targetPoint" />
          </mxGeometry>
        </mxCell>
        <mxCell id="Nu1XIbVVdbyaspOfS0JF-5" value="" style="rhombus;whiteSpace=wrap;html=1;" parent="1" vertex="1">
          <mxGeometry x="-1200" y="250" width="80" height="80" as="geometry" />
        </mxCell>
        <mxCell id="Nu1XIbVVdbyaspOfS0JF-6" value="" style="shape=parallelogram;perimeter=parallelogramPerimeter;whiteSpace=wrap;html=1;fixedSize=1;" parent="1" vertex="1">
          <mxGeometry x="-720" y="260" width="120" height="60" as="geometry" />
        </mxCell>
        <mxCell id="Nu1XIbVVdbyaspOfS0JF-7" value="Come back and eat brakfast" style="shape=parallelogram;perimeter=parallelogramPerimeter;whiteSpace=wrap;html=1;fixedSize=1;" parent="1" vertex="1">
          <mxGeometry x="280" y="400" width="200" height="80" as="geometry" />
        </mxCell>
        <mxCell id="Nu1XIbVVdbyaspOfS0JF-8" value="" style="endArrow=classic;html=1;rounded=0;" parent="1" edge="1">
          <mxGeometry width="50" height="50" relative="1" as="geometry">
            <mxPoint x="379.5" y="490" as="sourcePoint" />
            <mxPoint x="379.5" y="580" as="targetPoint" />
          </mxGeometry>
        </mxCell>
        <mxCell id="Nu1XIbVVdbyaspOfS0JF-9" value="Watch Tv" style="shape=parallelogram;perimeter=parallelogramPerimeter;whiteSpace=wrap;html=1;fixedSize=1;" parent="1" vertex="1">
          <mxGeometry x="295" y="600" width="170" height="90" as="geometry" />
        </mxCell>
        <mxCell id="Nu1XIbVVdbyaspOfS0JF-10" value="" style="endArrow=classic;html=1;rounded=0;" parent="1" edge="1">
          <mxGeometry width="50" height="50" relative="1" as="geometry">
            <mxPoint x="379.5" y="710" as="sourcePoint" />
            <mxPoint x="379.5" y="790" as="targetPoint" />
          </mxGeometry>
        </mxCell>
        <mxCell id="Nu1XIbVVdbyaspOfS0JF-11" value="Go to my neighbours house" style="ellipse;whiteSpace=wrap;html=1;" parent="1" vertex="1">
          <mxGeometry x="295" y="800" width="170" height="100" as="geometry" />
        </mxCell>
      </root>
    </mxGraphModel>
  </diagram>
</mxfile>
